<?xml version="1.0" standalone="no"?><svg xmlns="http://www.w3.org/2000/svg" viewBox="0 0 1440 320"><path fill="#2b3035" fill-opacity="1" d="M0,64L48,64C96,64,192,64,288,96C384,128,480,192,576,186.7C672,181,768,107,864,90.7C960,75,1056,117,1152,144C1248,171,1344,181,1392,186.7L1440,192L1440,320L1392,320C1344,320,1248,320,1152,320C1056,320,960,320,864,320C768,320,672,320,576,320C480,320,384,320,288,320C192,320,96,320,48,320L0,320Z" style="--darkreader-inline-fill: #242729;" data-darkreader-inline-fill=""></path></svg>